<?xml version="1.0" encoding="UTF-8"?>
<!DOCTYPE svg PUBLIC "-//W3C//DTD SVG 1.1//EN" "http://www.w3.org/Graphics/SVG/1.1/DTD/svg11.dtd">
<svg width="700px" height="500px" viewBox="-700 -500 1400 1000" version="1.1" xmlns="http://www.w3.org/2000/svg">
 <defs>
    <marker id="Triangle"
	      viewBox="-10 -5 10 10" refX="-5" refY="0" 
	      markerUnits="strokeWidth"
	      markerWidth="6" markerHeight="6"
	      orient="auto">
	      <path d="M 0 0 L -10 -5 L -10 5 z" />
    </marker>
  </defs>
<!-- Hier kommen die Zeichenbefehle hin. -->
   <g style="fill:none; stroke:#000000; stroke-width:6; stroke-linejoin:miter; stroke-linecap:butt;">
     <path d="M -650,0 L 630,0    L 630,-10 L 650,0  L 630, 10 L 630,0  " style="fill:#000000;" />
     <path d="M 0,450  L 0,-430 L -10,-430, L 0,-450 L 10,-430 L 0,-430 " style="fill:#000000;" />
     <ellipse cx="0" cy="0" rx="500" ry="300" />
   </g>
   <g style="fill:none; stroke:#FF0000; stroke-width:6; stroke-linecap:round;">
     <line x1="0" y1="0" x2="500"  y2="0" />
     <line x1="0" y1="0" x2="0" y2="-300" />
   </g>
   <g style="fill:none; stroke:#00FF00; stroke-width:6; stroke-linecap:round;">
     <line x1="-400" y1="0" x2="0"  y2="-300" />
     <line x1="0" y1="-300" x2="400" y2="0" />
   </g>
   <g style="fill:none; stroke:#0000FF; stroke-width:6; stroke-linecap:round;">
     <line x1="-400" y1="0"    x2="300"  y2="-240" />
     <line x1="300"  y1="-240" x2="400"  y2="0"    />
   </g>
   <g style="fill:none; stroke:#FF00FF; stroke-width:6; stroke-linecap:round;">
     <line x1="-400" y1="0"    x2="0"  y2="0" />
   </g>
   <g style="fill:none; stroke:#CCCC00; stroke-width:6; stroke-linecap:round;">
     <line x1="400" y1="0"    x2="400"  y2="180" />
     <line x1="360" y1="180"  x2="440"  y2="180" style="stroke-width:4;" />
   </g>

   <circle cx="-500" cy="0"    r="10" style="fill:#000000; stroke:none;" />
   <circle cx="-400" cy="0"    r="10" style="fill:#000000; stroke:none;" />
   <circle cx="0"    cy="0"    r="10" style="fill:#000000; stroke:none;" />
   <circle cx="400"  cy="0"    r="10" style="fill:#000000; stroke:none;" />
   <circle cx="500"  cy="0"    r="10" style="fill:#000000; stroke:none;" />
   <circle cx="0"    cy="-300" r="10" style="fill:#000000; stroke:none;" />
   <circle cx="0"    cy="300"  r="10" style="fill:#000000; stroke:none;" />
   <circle cx="300"  cy="-240" r="10" style="fill:#0000FF; stroke:none;" />

   <g style="fill:#000000; stroke:none; font-family:sans-serif; font-weight:bold; text-anchor:start; font-size:50px;">
     <text x="600"  y="40"       style="text-anchor:start;" >x</text>
     <text x="-10"   y="-380"    style="text-anchor:end;  " >y</text>
     <text x="10"   y="50"       style="text-anchor:start;" >M</text>
     <text x="340"  y="50">F<tspan x="370"  y="60"   style="font-size:40px;">1</tspan></text>
     <text x="-430" y="50">F<tspan x="-400" y="60"   style="font-size:40px;">2</tspan></text>
     <text x=" 510" y="50">S<tspan x="545"  y="60"   style="font-size:40px">1</tspan></text>
     <text x="-560" y="50">S<tspan x="-525"  y="60"  style="font-size:40px">2</tspan></text>
     <text x="10" y="-330">S<tspan x="45"   y="-320" style="font-size:40px">3</tspan></text>
     <text x="10" y=" 350">S<tspan x="45"   y="360"  style="font-size:40px">4</tspan></text>
   </g>
   <g style="fill:#00FF00; stroke:none; font-family:sans-serif; font-weight:bold; text-anchor:middle; font-size:50px;">
     <text x="-140" y="-220">a</text>
     <text x="140"  y="-220">a</text>
   </g>
   <g style="fill:#FF0000; stroke:none; font-family:sans-serif; font-weight:bold; text-anchor:middle; font-size:50px;">
     <text x="250" y="50">a</text>
     <text x="-10" y="-50" style="text-anchor:end;" >b</text>
   </g>
   <g style="fill:#0000FF; stroke:none; font-family:sans-serif; font-weight:bold; text-anchor:middle; font-size:50px;">
     <text x="300" y="-260" style="text-anchor:start;" >P</text>
   </g>
   <g style="fill:#FF00FF; stroke:none; font-family:sans-serif; font-weight:bold; text-anchor:middle; font-size:50px;">
     <text x="-200" y="50" >e</text>
   </g>
   <g style="fill:#CCCC00; stroke:none; font-family:sans-serif; font-weight:bold; text-anchor:middle; font-size:50px;">
     <text x="390" y="120" style="text-anchor:end;" >p</text>
   </g>
</svg>